# xmcd CD database file
#
# Track frame offsets:
#	150
#	8195
#	25827
#	39590
#	60152
#	81385
#	97485
#	110827
#	131000
#	137992
#	160295
#	175252
#	184467
#	194895
#	206480
#	230387
#
# Disc length: 3487 seconds
#
# Revision: 1
# Processed by: cddbd v1.5.2PL0 Copyright (c) Steve Scherf et al.
# Submitted via: CDex 1.79
#
DISCID=ef0d9d10
DTITLE=Various Artist - "This Is Jazz" The Historic Broadcasts - Vol. 4 - CD 1
DYEAR=1947
DGENRE=Jazz
TTITLE0=Program Introduction
TTITLE1=Everybody Loves My Baby
TTITLE2=Rose Room
TTITLE3=Have Your Chill
TTITLE4=Yellow Dog Blues
TTITLE5=Cherry
TTITLE6=I'm A Dirty Cat
TTITLE7=Clarinet Marmalade
TTITLE8=Program Introduction
TTITLE9=St. Louis Blues
TTITLE10=Tin Roof Blues
TTITLE11=Rampart St. Boogie
TTITLE12=The Shout
TTITLE13=Oh, I'm Evil
TTITLE14=Moonlight On The Ganges
TTITLE15=Tiger Rag
EXTD=YEAR: 1947
EXTT0=
EXTT1=
EXTT2=
EXTT3=
EXTT4=
EXTT5=
EXTT6=
EXTT7=
EXTT8=
EXTT9=
EXTT10=
EXTT11=
EXTT12=
EXTT13=
EXTT14=
EXTT15=
PLAYORDER=
